<?xml version="1.0" standalone="no"?>
<!DOCTYPE svg PUBLIC "-//W3C//DTD SVG 20010904//EN"
 "http://www.w3.org/TR/2001/REC-SVG-20010904/DTD/svg10.dtd">
<svg version="1.0" xmlns="http://www.w3.org/2000/svg"
 width="300.000000pt" height="300.000000pt" viewBox="0 0 300.000000 300.000000"
 preserveAspectRatio="xMidYMid meet">
<metadata>
Created by potrace 1.14, written by Peter Selinger 2001-2017
</metadata>
<g transform="translate(0.000000,300.000000) scale(0.100000,-0.100000)"
fill="#000000" stroke="none">
<path d="M1370 2989 c-462 -47 -858 -281 -1111 -657 -115 -172 -185 -338 -230
-552 -32 -151 -33 -399 -1 -557 63 -312 192 -555 416 -779 224 -224 467 -354
779 -416 156 -31 395 -31 552 0 458 91 838 374 1048 780 95 184 136 323 162
552 24 203 1 403 -71 620 -71 214 -193 408 -359 575 -257 257 -563 398 -944
435 -114 11 -119 11 -241 -1z m236 -356 c34 -11 67 -35 110 -77 78 -79 94
-123 101 -281 l6 -120 31 -15 c54 -26 56 -41 54 -307 l-3 -243 -28 -27 -28
-28 -328 1 c-325 1 -388 5 -376 24 3 5 0 7 -8 4 -30 -11 -37 43 -37 290 l0
243 26 27 c15 14 32 26 39 26 8 0 14 37 18 125 5 106 10 134 32 183 34 75 86
128 160 163 71 34 153 39 231 12z m935 -1286 c37 -29 40 -49 30 -247 -11 -207
-20 -239 -68 -258 -15 -6 -127 -14 -248 -19 -277 -10 -1433 -9 -1619 1 -134 8
-141 9 -167 35 -29 30 -32 46 -44 318 -5 120 -5 121 21 152 l26 31 1026 0
c792 -1 1031 -3 1043 -13z"/>
<path d="M1426 2439 c-46 -36 -56 -69 -56 -184 l0 -105 130 0 130 0 0 109 c0
96 -3 112 -23 142 -12 18 -34 39 -47 46 -39 20 -103 16 -134 -8z"/>
</g>
</svg>
